<svg version="1.2" xmlns="http://www.w3.org/2000/svg" viewBox="0 0 22 22" width="500" height="500">
	<title>logo-svg</title>
	<style>
		.s0 { fill: none;stroke: #00ff7d;stroke-linecap: round;stroke-linejoin: round;stroke-width: 2 } 
	</style>
	<g id="Layer 1">
		<path id="Layer" fill-rule="evenodd" class="s0" d="m12.3 8.2c-1.3-0.7-2.7 0.2-3.2 1.4-0.8 1.7 0.3 3.6 2 4.2 2.2 0.8 4.6-0.6 5.3-2.7 0.8-2.7-0.9-5.5-3.4-6.3-3.1-1-6.4 1-7.3 4.1-1.1 3.5 1.2 7.3 4.7 8.3 4.1 1.1 8.2-1.5 9.3-5.4 1.3-4.5-1.6-9.2-6.1-10.4-4.9-1.3-10 1.9-11.3 6.8-1.4 5.4 2.1 11 7.4 12.3 2.4 0.6 4.9 0.4 7.1-0.5"/>
	</g>
</svg>